PathFileType	4	(x/y/z)	S04_P20_T04.trc
DataRate	CameraRate	NumFrames	NumMarkers	Units	OrigDataRate	OrigDataStartFrame	OrigNumFrames
240	240	11	51	mm	240	314	358
Frame#	Time	Sternum			R.Acromium			L.Acromium			Top.Head			R.ASIS			L.ASIS			R.PSIS			L.PSIS			R.Great.Tro			L.Great.Tro			R.Iliac.Crest			L.Iliac.Crest			V.Sacral			R.Thigh.Upper.Post			R.Thigh.Lower.Ant			R.Thigh.Lower.Post			R.Thigh.Upper.Ant			R.Knee.Lat			R.Knee.Med			R.Shank.Upper.Post			R.Shank.Lower.Ant			R.Shank.Lower.Post			R.Shank.Upper.Ant			R.Ankle.Lat			R.Ankle.Med			R.Heel.Upper			R.Heel.Med			R.Heel.Lat			R.Toe.Lat			R.Toe.Med			R.Toe.Tip			L.Thigh.Upper.Post			L.Thigh.Lower.Ant			L.Thigh.Lower.Post			L.Thigh.Upper.Ant			L.Knee.Lat			L.Knee.Med			L.Shank.Upper.Post			L.Shank.Lower.Ant			L.Shank.Lower.Post			L.Shank.Upper.Ant			L.Ankle.Lat			L.Ankle.Med			L.Heel.Upper			L.Heel.Med			L.Heel.Lat			L.Toe.Lat			L.Toe.Med			L.Toe.Tip			Cervical.Spine			Back			
		X1	Y1	Z1	X2	Y2	Z2	X3	Y3	Z3	X4	Y4	Z4	X5	Y5	Z5	X6	Y6	Z6	X7	Y7	Z7	X8	Y8	Z8	X9	Y9	Z9	X10	Y10	Z10	X11	Y11	Z11	X12	Y12	Z12	X13	Y13	Z13	X14	Y14	Z14	X15	Y15	Z15	X16	Y16	Z16	X17	Y17	Z17	X18	Y18	Z18	X19	Y19	Z19	X20	Y20	Z20	X21	Y21	Z21	X22	Y22	Z22	X23	Y23	Z23	X24	Y24	Z24	X25	Y25	Z25	X26	Y26	Z26	X27	Y27	Z27	X28	Y28	Z28	X29	Y29	Z29	X30	Y30	Z30	X31	Y31	Z31	X32	Y32	Z32	X33	Y33	Z33	X34	Y34	Z34	X35	Y35	Z35	X36	Y36	Z36	X37	Y37	Z37	X38	Y38	Z38	X39	Y39	Z39	X40	Y40	Z40	X41	Y41	Z41	X42	Y42	Z42	X43	Y43	Z43	X44	Y44	Z44	X45	Y45	Z45	X46	Y46	Z46	X47	Y47	Z47	X48	Y48	Z48	X49	Y49	Z49	X50	Y50	Z50	X51	Y51	Z51	

314	1.3042	338.08	1276.4	250.52	227.57	1513.2	423.94	223	1496.5	73.407	349.25	1821.3	235.55	296.04	1001	378.55	285.53	1017.4	131.68	79.852	1034.3	292.2	84.677	1041.9	211.05	217.1	922.31	449.08	163.17	934.9	72.413	209.22	1093.5	426.24	191.53	1100.9	89.83	61.724	996.23	250.08	303.58	673.55	438.7	400.39	622.87	398.6	334.48	589.16	422.11	371.37	728.01	420.28	377.99	534.49	410.84	355.78	523.72	277.45	341.57	303.55	407.37	423.3	238.86	370.72	354.29	235.21	392.73	407.73	306.98	393.51	386.9	122.89	374.64	414.24	140.55	287.89	335.72	78.039	311.41	355.35	51.372	283.03	343.52	46.621	345.8	504	72.234	413.4	551.4	85.338	302.04	602.52	116.56	355.71	132.11	702.89	87.96	205.95	601.15	91.264	134.97	613.98	99.47	198.09	690.19	75.155	165.34	513.91	106.88	170.74	503.83	230.65	60.235	342.59	111.09	121.08	249.7	113.22	58.559	264.75	119.44	122.51	326.11	104.65	86.356	101.8	134.08	90.671	111.5	227.62	8.7749	71.84	179.51	15.48	46.932	213.74	12.646	44.059	151.89	196.26	42.103	111.04	228.42	48.446	227.31	284.47	59.546	177.31	182.37	1566	252.53	80.687	1310.6	231.38
315	1.3083	343.68	1275.7	250.76	232.93	1512.6	424.13	228.71	1495.9	73.58	354.41	1820.9	235.89	301.74	1000.4	378.58	290.84	1016.7	131.75	85.405	1033.8	292.52	90.161	1041.4	211.37	222.77	921.73	449.27	168.17	934.52	72.62	215.19	1092.9	426.39	196.93	1100.4	89.963	67.221	995.73	250.4	308.43	672.76	438.92	405.26	622.08	398.87	339.33	588.39	422.28	376.22	727.23	420.51	383.43	534.18	411.07	361.01	522.83	277.64	352.15	302.44	407.7	435.25	239.66	370.88	366.42	234.42	393.08	418.14	307.43	393.71	401.69	122.84	374.96	428.25	141.05	288.06	351.28	76.712	311.95	371.38	50.451	283.55	359.9	45.535	346.36	520.11	74.843	413.24	566.76	88.886	301.68	617.37	121.33	355.08	135.67	702.95	88.183	208.89	600.76	91.489	137.98	614.01	99.666	201.56	689.87	75.409	167.57	513.69	106.9	173.07	503.55	230.7	61.492	342.87	111.35	121.93	249.72	113.22	59.464	265.08	119.62	123.75	326.13	104.67	86.514	101.92	134.23	90.864	111.53	227.7	8.8552	71.96	179.64	15.532	46.984	213.82	12.716	44.225	151.97	196.33	42.069	111.06	228.52	48.183	227.37	284.6	59.17	177.31	187.86	1565.4	252.65	86.268	1310	231.41
316	1.3125	349.28	1275.1	251.01	238.31	1511.9	424.33	234.41	1495.2	73.78	359.57	1820.4	236.23	307.47	999.84	378.63	296.17	1016.1	131.83	90.979	1033.2	292.85	95.662	1040.9	211.7	228.45	921.12	449.47	173.2	934.12	72.828	221.13	1092.3	426.55	202.34	1099.8	90.104	72.74	995.2	250.74	313.3	671.94	439.14	410.14	621.27	399.17	344.19	587.58	422.47	381.08	726.42	420.77	388.87	533.85	411.31	366.25	521.93	277.84	362.58	301.43	408.03	446.95	240.5	371.02	378.33	233.73	393.43	428.38	307.92	393.89	416.16	122.93	375.25	441.93	141.65	288.22	366.5	75.557	312.48	387.05	49.695	284.06	375.92	44.634	346.92	535.82	77.539	413.05	581.68	92.466	301.29	631.79	126.11	354.41	139.3	702.98	88.401	211.92	600.37	91.732	141.08	614.01	99.865	205.11	689.53	75.676	169.9	513.45	106.93	175.5	503.27	230.77	62.819	343.18	111.6	122.82	249.75	113.22	60.424	265.43	119.8	125.04	326.15	104.7	86.677	102.05	134.38	91.065	111.58	227.79	8.9362	72.082	179.78	15.583	47.038	213.89	12.785	44.396	152.06	196.39	42.034	111.08	228.62	47.919	227.42	284.73	58.788	177.3	193.34	1564.8	252.8	91.849	1309.3	231.47
317	1.3167	354.89	1274.4	251.26	243.7	1511.2	424.57	240.09	1494.6	74.008	364.73	1819.9	236.58	313.22	999.25	378.67	301.51	1015.4	131.91	96.572	1032.6	293.19	101.18	1040.3	212.04	234.17	920.48	449.66	178.25	933.7	73.035	227.06	1091.6	426.72	207.76	1099.3	90.253	78.282	994.64	251.08	318.19	671.1	439.38	415.06	620.44	399.48	349.08	586.75	422.66	385.96	725.59	421.04	394.32	533.5	411.57	371.52	521.03	278.04	372.85	300.5	408.36	458.4	241.38	371.14	390	233.15	393.76	438.43	308.42	394.05	430.28	123.13	375.52	455.25	142.32	288.35	381.34	74.556	313	402.31	49.083	284.56	391.54	43.898	347.47	551.08	80.289	412.82	596.14	96.046	300.86	645.75	130.85	353.69	143.01	702.98	88.612	215.05	599.96	91.992	144.27	613.99	100.07	208.74	689.17	75.956	172.33	513.21	106.97	178.03	502.99	230.85	64.222	343.51	111.85	123.75	249.78	113.23	61.442	265.81	119.98	126.4	326.17	104.73	86.846	102.18	134.54	91.277	111.64	227.87	9.0181	72.209	179.93	15.634	47.096	213.98	12.856	44.575	152.16	196.45	42	111.11	228.72	47.655	227.48	284.86	58.4	177.3	198.83	1564.1	252.98	97.431	1308.7	231.54
318	1.3208	360.49	1273.8	251.53	249.09	1510.5	424.82	245.76	1493.9	74.266	369.91	1819.4	236.93	319	998.65	378.72	306.86	1014.7	132	102.19	1032	293.54	106.71	1039.8	212.38	239.91	919.83	449.85	183.32	933.26	73.241	232.96	1090.9	426.89	213.2	1098.7	90.408	83.848	994.06	251.44	323.13	670.26	439.62	420.03	619.6	399.8	354.02	585.92	422.86	390.9	724.75	421.34	399.8	533.14	411.84	376.83	520.12	278.25	382.93	299.66	408.68	469.57	242.27	371.24	401.42	232.65	394.09	448.28	308.93	394.2	444.02	123.43	375.76	468.17	143.05	288.47	395.77	73.691	313.5	417.14	48.597	285.04	406.73	43.307	348	565.86	83.06	412.56	610.12	99.592	300.41	659.23	135.52	352.95	146.79	702.96	88.818	218.28	599.54	92.267	147.56	613.94	100.27	212.45	688.79	76.247	174.88	512.95	107.01	180.66	502.7	230.94	65.708	343.87	112.09	124.73	249.83	113.24	62.521	266.22	120.15	127.82	326.2	104.76	87.021	102.33	134.7	91.5	111.72	227.96	9.1015	72.343	180.09	15.686	47.159	214.07	12.926	44.762	152.27	196.52	41.966	111.13	228.83	47.392	227.53	285	58.006	177.3	204.31	1563.4	253.18	103.01	1308	231.64
319	1.325	366.1	1273.1	251.82	254.49	1509.8	425.09	251.4	1493.2	74.556	375.08	1818.8	237.29	324.8	998.05	378.77	312.23	1014	132.08	107.82	1031.4	293.9	112.26	1039.2	212.74	245.68	919.17	450.03	188.43	932.79	73.446	238.83	1090.2	427.07	218.64	1098.1	90.569	89.437	993.44	251.81	328.13	669.41	439.86	425.06	618.77	400.12	359.02	585.09	423.05	395.9	723.92	421.64	405.32	532.77	412.11	382.18	519.24	278.45	392.82	298.89	408.98	480.45	243.15	371.31	412.57	232.24	394.39	457.92	309.44	394.34	457.34	123.8	375.97	480.68	143.81	288.55	409.75	72.942	313.98	431.49	48.213	285.49	421.45	42.838	348.5	580.14	85.818	412.27	623.6	103.07	299.93	672.21	140.08	352.18	150.67	702.9	89.016	221.61	599.11	92.557	150.96	613.86	100.48	216.26	688.4	76.548	177.53	512.68	107.06	183.42	502.4	231.05	67.281	344.25	112.32	125.77	249.88	113.26	63.666	266.65	120.31	129.32	326.23	104.81	87.206	102.49	134.87	91.738	111.82	228.06	9.187	72.486	180.26	15.74	47.232	214.17	12.998	44.96	152.38	196.58	41.932	111.17	228.94	47.129	227.58	285.14	57.606	177.3	209.78	1562.8	253.41	108.59	1307.3	231.77
320	1.3292	371.71	1272.4	252.11	259.9	1509	425.4	257.03	1492.6	74.878	380.27	1818.3	237.65	330.62	997.45	378.81	317.62	1013.3	132.16	113.47	1030.8	294.27	117.83	1038.5	213.1	251.48	918.5	450.22	193.55	932.3	73.648	244.69	1089.5	427.27	224.09	1097.6	90.737	95.05	992.81	252.19	333.22	668.58	440.11	430.18	617.96	400.43	364.11	584.27	423.25	400.97	723.1	421.95	410.9	532.4	412.38	387.59	518.37	278.64	402.49	298.2	409.27	491.03	244.02	371.35	423.41	231.89	394.67	467.35	309.93	394.45	470.21	124.21	376.13	492.75	144.57	288.61	423.25	72.29	314.42	445.34	47.912	285.9	435.66	42.467	348.96	593.88	88.526	411.95	636.54	106.44	299.43	684.66	144.49	351.4	154.63	702.81	89.208	225.05	598.67	92.86	154.46	613.76	100.7	220.16	687.98	76.858	180.31	512.39	107.12	186.29	502.08	231.17	68.946	344.65	112.54	126.86	249.93	113.28	64.879	267.1	120.47	130.89	326.26	104.86	87.401	102.66	135.04	91.991	111.95	228.16	9.2757	72.643	180.44	15.796	47.318	214.29	13.071	45.174	152.5	196.65	41.899	111.2	229.05	46.869	227.63	285.29	57.2	177.3	215.25	1562.1	253.66	114.17	1306.6	231.91
321	1.3333	377.32	1271.7	252.43	265.31	1508.3	425.72	262.63	1491.9	75.233	385.46	1817.7	238.01	336.46	996.85	378.86	323.03	1012.6	132.24	119.14	1030.1	294.64	123.42	1037.9	213.47	257.32	917.83	450.4	198.71	931.79	73.848	250.51	1088.7	427.47	229.56	1097	90.911	100.69	992.15	252.58	338.4	667.76	440.36	435.39	617.17	400.72	369.3	583.48	423.44	406.15	722.31	422.25	416.54	532.02	412.63	393.07	517.53	278.83	411.95	297.57	409.54	501.29	244.84	371.36	433.95	231.6	394.93	476.56	310.38	394.53	482.6	124.66	376.26	504.37	145.32	288.64	436.24	71.714	314.82	458.65	47.671	286.28	449.33	42.171	349.39	607.06	91.151	411.6	648.94	109.68	298.91	696.59	148.7	350.6	158.7	702.69	89.392	228.61	598.21	93.175	158.08	613.62	100.91	224.16	687.55	77.175	183.22	512.09	107.19	189.3	501.76	231.31	70.708	345.08	112.75	128.02	249.99	113.31	66.166	267.58	120.64	132.54	326.3	104.92	87.609	102.85	135.21	92.262	112.1	228.28	9.3688	72.817	180.63	15.857	47.422	214.41	13.145	45.405	152.63	196.71	41.866	111.25	229.17	46.611	227.69	285.45	56.787	177.3	220.72	1561.3	253.95	119.75	1305.9	232.08
322	1.3375	382.92	1271	252.75	270.72	1507.5	426.07	268.22	1491.2	75.619	390.67	1817.1	238.38	342.31	996.26	378.9	328.45	1011.9	132.32	124.83	1029.4	295.03	129.03	1037.2	213.85	263.19	917.16	450.58	203.9	931.26	74.045	256.32	1088	427.68	235.03	1096.3	91.091	106.35	991.46	252.98	343.7	666.97	440.6	440.71	616.41	400.99	374.61	582.71	423.62	411.43	721.54	422.54	422.27	531.65	412.87	398.62	516.72	279.01	421.18	296.99	409.79	511.22	245.6	371.33	444.16	231.35	395.15	485.53	310.8	394.58	494.5	125.1	376.35	515.51	146.04	288.63	448.69	71.195	315.18	471.4	47.468	286.62	462.43	41.928	349.76	619.65	93.658	411.23	660.78	112.74	298.37	707.96	152.69	349.79	162.86	702.54	89.57	232.3	597.74	93.498	161.81	613.45	101.13	228.26	687.1	77.498	186.26	511.76	107.27	192.45	501.42	231.45	72.572	345.52	112.96	129.24	250.06	113.35	67.531	268.08	120.8	134.29	326.33	104.98	87.832	103.05	135.39	92.553	112.28	228.4	9.4682	73.015	180.83	15.922	47.549	214.55	13.223	45.661	152.77	196.77	41.833	111.29	229.3	46.357	227.74	285.62	56.367	177.3	226.18	1560.6	254.27	125.33	1305.2	232.27
323	1.3417	388.54	1270.3	253.1	276.14	1506.8	426.45	273.8	1490.6	76.038	395.88	1816.5	238.75	348.18	995.67	378.95	333.9	1011.1	132.39	130.54	1028.7	295.42	134.66	1036.5	214.24	269.1	916.5	450.75	209.13	930.71	74.24	262.11	1087.2	427.9	240.52	1095.7	91.278	112.04	990.76	253.39	349.13	666.22	440.83	446.15	615.7	401.22	380.05	581.97	423.79	416.83	720.81	422.82	428.08	531.29	413.08	404.26	515.96	279.18	430.16	296.47	410.02	520.8	246.29	371.28	454.02	231.12	395.35	494.27	311.15	394.6	505.87	125.53	376.41	526.15	146.7	288.6	460.56	70.714	315.49	483.55	47.282	286.91	474.92	41.715	350.09	631.63	96.014	410.83	672.04	115.59	297.82	718.78	156.42	348.98	167.13	702.35	89.74	236.11	597.25	93.828	165.67	613.25	101.35	232.47	686.62	77.824	189.44	511.42	107.36	195.74	501.05	231.6	74.542	345.99	113.16	130.54	250.14	113.4	68.976	268.6	120.96	136.12	326.36	105.06	88.072	103.28	135.57	92.868	112.49	228.53	9.5762	73.243	181.04	15.996	47.706	214.69	13.304	45.945	152.93	196.84	41.801	111.34	229.43	46.107	227.79	285.79	55.94	177.29	231.64	1559.9	254.61	130.91	1304.4	232.48
324	1.3458	394.15	1269.6	253.47	281.56	1506	426.86	279.36	1489.9	76.487	401.11	1815.9	239.13	354.07	995.09	378.99	339.38	1010.4	132.46	136.27	1028	295.82	140.31	1035.8	214.63	275.05	915.85	450.93	214.38	930.14	74.433	267.9	1086.4	428.13	246.02	1095.1	91.472	117.76	990.03	253.81	354.69	665.5	441.05	451.73	615.03	401.41	385.63	581.27	423.93	422.37	720.12	423.07	434	530.94	413.27	409.98	515.23	279.33	438.9	295.99	410.22	530.04	246.88	371.18	463.53	230.91	395.52	502.76	311.45	394.59	516.69	125.91	376.42	536.28	147.28	288.53	471.85	70.253	315.76	495.09	47.094	287.15	486.78	41.513	350.37	642.99	98.19	410.42	682.71	118.2	297.26	729.03	159.84	348.17	171.51	702.13	89.903	240.06	596.75	94.163	169.67	613.02	101.57	236.79	686.13	78.153	192.77	511.05	107.46	199.18	500.67	231.76	76.624	346.48	113.36	131.91	250.22	113.47	70.507	269.15	121.12	138.05	326.4	105.14	88.334	103.53	135.76	93.209	112.75	228.68	9.6955	73.509	181.26	16.08	47.901	214.85	13.391	46.265	153.09	196.91	41.77	111.4	229.57	45.861	227.83	285.98	55.505	177.29	237.09	1559.1	254.99	136.5	1303.7	232.72
